solid OpenSCAD_Model
  facet normal 1 -0 0
    outer loop
      vertex 11 0 5
      vertex 11 1 0
      vertex 11 1 5
    endloop
  endfacet
  facet normal 1 0 0
    outer loop
      vertex 11 1 0
      vertex 11 0 5
      vertex 11 0 0
    endloop
  endfacet
  facet normal 0 0 1
    outer loop
      vertex 8 5 5
      vertex 7 4 5
      vertex 8 1 5
    endloop
  endfacet
  facet normal 0 0 1
    outer loop
      vertex 8 5 5
      vertex 4 4 5
      vertex 7 4 5
    endloop
  endfacet
  facet normal -0 0 1
    outer loop
      vertex 3 5 5
      vertex 4 4 5
      vertex 8 5 5
    endloop
  endfacet
  facet normal 0 0 1
    outer loop
      vertex 3 1 5
      vertex 4 4 5
      vertex 3 5 5
    endloop
  endfacet
  facet normal 0 0 1
    outer loop
      vertex 4 4 5
      vertex 3 1 5
      vertex 4 0 5
    endloop
  endfacet
  facet normal 0 0 1
    outer loop
      vertex 0 0 5
      vertex 3 1 5
      vertex 0 1 5
    endloop
  endfacet
  facet normal 0 0 1
    outer loop
      vertex 3 1 5
      vertex 0 0 5
      vertex 4 0 5
    endloop
  endfacet
  facet normal -0 0 1
    outer loop
      vertex 8 1 5
      vertex 11 0 5
      vertex 11 1 5
    endloop
  endfacet
  facet normal 0 0 1
    outer loop
      vertex 8 1 5
      vertex 7 0 5
      vertex 11 0 5
    endloop
  endfacet
  facet normal 0 0 1
    outer loop
      vertex 7 0 5
      vertex 8 1 5
      vertex 7 4 5
    endloop
  endfacet
  facet normal 0 0 -1
    outer loop
      vertex 4 0 0
      vertex 3 1 0
      vertex 4 4 0
    endloop
  endfacet
  facet normal 0 0 -1
    outer loop
      vertex 0 0 0
      vertex 3 1 0
      vertex 4 0 0
    endloop
  endfacet
  facet normal -0 0 -1
    outer loop
      vertex 3 1 0
      vertex 0 0 0
      vertex 0 1 0
    endloop
  endfacet
  facet normal 0 0 -1
    outer loop
      vertex 11 0 0
      vertex 8 1 0
      vertex 11 1 0
    endloop
  endfacet
  facet normal 0 0 -1
    outer loop
      vertex 7 0 0
      vertex 8 1 0
      vertex 11 0 0
    endloop
  endfacet
  facet normal 0 0 -1
    outer loop
      vertex 7 4 0
      vertex 8 1 0
      vertex 7 0 0
    endloop
  endfacet
  facet normal 0 0 -1
    outer loop
      vertex 8 1 0
      vertex 7 4 0
      vertex 8 5 0
    endloop
  endfacet
  facet normal 0 0 -1
    outer loop
      vertex 4 4 0
      vertex 8 5 0
      vertex 7 4 0
    endloop
  endfacet
  facet normal 0 0 -1
    outer loop
      vertex 4 4 0
      vertex 3 5 0
      vertex 8 5 0
    endloop
  endfacet
  facet normal 0 0 -1
    outer loop
      vertex 3 5 0
      vertex 4 4 0
      vertex 3 1 0
    endloop
  endfacet
  facet normal -1 0 0
    outer loop
      vertex 0 0 0
      vertex 0 1 5
      vertex 0 1 0
    endloop
  endfacet
  facet normal -1 -0 0
    outer loop
      vertex 0 1 5
      vertex 0 0 0
      vertex 0 0 5
    endloop
  endfacet
  facet normal 0 1 -0
    outer loop
      vertex 3 1 0
      vertex 0 1 5
      vertex 3 1 5
    endloop
  endfacet
  facet normal 0 1 0
    outer loop
      vertex 0 1 5
      vertex 3 1 0
      vertex 0 1 0
    endloop
  endfacet
  facet normal 0 1 -0
    outer loop
      vertex 11 1 0
      vertex 8 1 5
      vertex 11 1 5
    endloop
  endfacet
  facet normal 0 1 0
    outer loop
      vertex 8 1 5
      vertex 11 1 0
      vertex 8 1 0
    endloop
  endfacet
  facet normal 0 -1 0
    outer loop
      vertex 0 0 0
      vertex 4 0 5
      vertex 0 0 5
    endloop
  endfacet
  facet normal 0 -1 -0
    outer loop
      vertex 4 0 5
      vertex 0 0 0
      vertex 4 0 0
    endloop
  endfacet
  facet normal 0 -1 0
    outer loop
      vertex 7 0 0
      vertex 11 0 5
      vertex 7 0 5
    endloop
  endfacet
  facet normal 0 -1 -0
    outer loop
      vertex 11 0 5
      vertex 7 0 0
      vertex 11 0 0
    endloop
  endfacet
  facet normal 1 -0 0
    outer loop
      vertex 8 1 5
      vertex 8 5 0
      vertex 8 5 5
    endloop
  endfacet
  facet normal 1 0 0
    outer loop
      vertex 8 5 0
      vertex 8 1 5
      vertex 8 1 0
    endloop
  endfacet
  facet normal -1 0 0
    outer loop
      vertex 3 1 0
      vertex 3 5 5
      vertex 3 5 0
    endloop
  endfacet
  facet normal -1 -0 0
    outer loop
      vertex 3 5 5
      vertex 3 1 0
      vertex 3 1 5
    endloop
  endfacet
  facet normal 0 1 -0
    outer loop
      vertex 8 5 0
      vertex 3 5 5
      vertex 8 5 5
    endloop
  endfacet
  facet normal 0 1 0
    outer loop
      vertex 3 5 5
      vertex 8 5 0
      vertex 3 5 0
    endloop
  endfacet
  facet normal -1 0 0
    outer loop
      vertex 7 0 0
      vertex 7 4 5
      vertex 7 4 0
    endloop
  endfacet
  facet normal -1 -0 0
    outer loop
      vertex 7 4 5
      vertex 7 0 0
      vertex 7 0 5
    endloop
  endfacet
  facet normal 1 -0 0
    outer loop
      vertex 4 0 5
      vertex 4 4 0
      vertex 4 4 5
    endloop
  endfacet
  facet normal 1 0 0
    outer loop
      vertex 4 4 0
      vertex 4 0 5
      vertex 4 0 0
    endloop
  endfacet
  facet normal 0 -1 0
    outer loop
      vertex 4 4 0
      vertex 7 4 5
      vertex 4 4 5
    endloop
  endfacet
  facet normal 0 -1 -0
    outer loop
      vertex 7 4 5
      vertex 4 4 0
      vertex 7 4 0
    endloop
  endfacet
endsolid OpenSCAD_Model
